<svg width="148" height="118" viewBox="0 0 148 118" fill="none" xmlns="http://www.w3.org/2000/svg">
<path d="M73.7066 100.287C105.277 100.287 130.87 98.7929 130.87 96.9497C130.87 95.1065 105.277 93.6123 73.7066 93.6123C42.1358 93.6123 16.5427 95.1065 16.5427 96.9497C16.5427 98.7929 42.1358 100.287 73.7066 100.287Z" fill="#F5F5F5"/>
<path d="M102.968 22.4148L100.043 21.2355C100.043 21.2355 96.1841 28.273 95.0785 28.6297C93.5749 29.1132 90.4615 30.4576 88.6159 30.6935C88.3653 30.9883 87.9555 31.9052 87.9938 32.2384C90.4733 33.0668 95.9217 31.9671 97.0892 31.1004C99.7456 29.1339 102.968 22.4148 102.968 22.4148Z" fill="#E58A7B"/>
<path d="M103.867 20.8139C104.413 22.8275 101.459 26.8785 101.459 26.8785L97.5875 24.7085C97.5875 24.7085 98.3128 23.0428 99.1973 21.3475C100.615 18.6086 103.245 18.5172 103.867 20.8139Z" fill="#4CAF4F"/>
<path opacity="0.2" d="M103.867 20.8139C104.413 22.8275 101.459 26.8785 101.459 26.8785L97.5875 24.7085C97.5875 24.7085 98.3128 23.0428 99.1973 21.3475C100.615 18.6086 103.245 18.5172 103.867 20.8139Z" fill="black"/>
<path opacity="0.2" d="M99.1235 25.5752L100.648 26.4302L100.916 21.7513C100.029 22.4324 99.4036 24.4844 99.1235 25.5752Z" fill="black"/>
<path d="M101.32 19.2985C101.32 19.2985 98.3069 26.0028 100.064 38.4857H111.937C112.125 36.6637 111.5 27.7718 113.762 19.1864C112.459 18.9319 111.141 18.7635 109.817 18.6823C108.137 18.5849 106.453 18.5849 104.772 18.6823C103.608 18.8005 102.454 19.0065 101.32 19.2985Z" fill="#4CAF4F"/>
<path opacity="0.2" d="M101.32 19.2985C101.32 19.2985 98.3069 26.0028 100.064 38.4857H111.937C112.125 36.6637 111.5 27.7718 113.762 19.1864C112.459 18.9319 111.141 18.7635 109.817 18.6823C108.137 18.5849 106.453 18.5849 104.772 18.6823C103.608 18.8005 102.454 19.0065 101.32 19.2985Z" fill="black"/>
<g style="mix-blend-mode:multiply">
<path d="M98.5663 97.215C98.5486 97.5334 103.051 97.7899 108.62 97.7899C114.189 97.7899 118.724 97.5334 118.741 97.215C118.759 96.8966 114.26 96.6431 108.688 96.6431C103.115 96.6431 98.587 96.8996 98.5663 97.215Z" fill="#E8ECF1"/>
</g>
<path d="M106.491 88.8487L104.386 89.6638L106.2 94.3497L108.305 93.5346L106.491 88.8487Z" fill="#E58A7B"/>
<path d="M115.881 94.9479H113.661L112.848 89.8091H115.068L115.881 94.9479Z" fill="#E58A7B"/>
<path d="M113.508 94.6914H116.002C116.046 94.6915 116.088 94.707 116.12 94.7351C116.153 94.7632 116.175 94.802 116.182 94.8447L116.504 96.8171C116.51 96.8666 116.506 96.9169 116.492 96.9648C116.478 97.0126 116.453 97.0567 116.42 97.0942C116.387 97.1317 116.346 97.1616 116.301 97.182C116.255 97.2023 116.206 97.2126 116.156 97.2122C115.286 97.1974 114.867 97.1444 113.771 97.1444C113.095 97.1444 111.707 97.2151 110.769 97.2151C109.832 97.2151 109.77 96.2953 110.156 96.2098C111.89 95.8353 112.562 95.3253 113.14 94.83C113.242 94.7405 113.373 94.6912 113.508 94.6914Z" fill="#263238"/>
<path d="M106.138 93.9307L108.496 93.2408C108.538 93.229 108.583 93.2319 108.623 93.249C108.664 93.2662 108.697 93.2966 108.717 93.3352L109.602 95.1041C109.622 95.149 109.633 95.1978 109.632 95.2472C109.632 95.2965 109.621 95.3453 109.6 95.3899C109.579 95.4345 109.548 95.474 109.511 95.5056C109.473 95.5373 109.428 95.5602 109.381 95.5729C108.523 95.8088 107.948 95.9532 106.875 96.2657C106.135 96.481 105.38 96.8318 104.649 97.0647C104.142 97.2269 102.95 97.2328 102.334 97.2328C101.423 97.2328 101.22 96.2716 101.612 96.2274C102.6 96.1183 102.732 96.1685 103.278 95.8943C104.17 95.5042 104.979 94.9456 105.66 94.2491C105.788 94.1028 105.953 93.993 106.138 93.9307Z" fill="#263238"/>
<path d="M88.9874 30.6816L86.5462 29.6586L85.5409 32.3651C86.5415 32.5175 87.5593 32.5175 88.5599 32.3651L88.9874 30.6816Z" fill="#E58A7B"/>
<path d="M84.7301 29.5879L84.6653 31.3863L85.5409 32.3593L86.5463 29.6528L84.7301 29.5879Z" fill="#E58A7B"/>
<path d="M106.78 89.2466L104.668 90.0621L105.603 92.4852L107.716 91.6697L106.78 89.2466Z" fill="#CF6F64"/>
<path d="M115.068 89.8091H112.848L113.269 92.4596H115.489L115.068 89.8091Z" fill="#CF6F64"/>
<path opacity="0.2" d="M99.6866 35.11C99.7309 35.6436 99.781 36.189 99.8459 36.7492L108.673 33.8835C110.051 33.4749 111.249 32.6087 112.069 31.4276C112.105 30.6404 112.149 29.8119 112.217 28.9481C112.246 28.5294 112.282 28.099 112.32 27.6627C112.358 27.2263 112.411 26.7428 112.467 26.277L99.6866 35.11Z" fill="black"/>
<path d="M102.57 25.4397L102.275 25.4043C102.449 23.9302 103.549 22.7686 104.708 22.798V23.0929C103.693 23.0722 102.726 24.1189 102.57 25.4397Z" fill="white"/>
<path d="M104.142 28.1609H104.091V27.866C105.106 27.9044 106.058 26.8459 106.214 25.5281L106.509 25.5635C106.353 27.0052 105.288 28.1609 104.142 28.1609Z" fill="white"/>
<path d="M109.652 13.001C109.236 14.6255 108.747 17.6003 109.817 18.6823C109.817 18.6823 109.068 20.3304 106.052 20.3304C103.295 20.3304 104.772 18.6823 104.772 18.6823C106.606 18.2518 106.639 16.9133 106.397 15.6456L109.652 13.001Z" fill="#E58A7B"/>
<path d="M108.325 14.0801L106.4 15.6456C106.46 15.9369 106.494 16.2328 106.503 16.5301C107.066 17.0903 108.195 15.6721 108.31 14.9469C108.369 14.6613 108.374 14.3674 108.325 14.0801Z" fill="#CF6F64"/>
<path d="M103.089 12.9803C103.223 13.2125 103.403 13.4145 103.619 13.5738C103.835 13.7331 104.081 13.8462 104.342 13.906C105.05 14.0623 105.403 13.4107 105.209 12.7562C105.035 12.1666 104.454 11.3735 103.735 11.5091C103.581 11.5408 103.436 11.609 103.314 11.708C103.192 11.8069 103.095 11.9338 103.032 12.0778C102.968 12.2219 102.941 12.379 102.951 12.536C102.961 12.693 103.008 12.8454 103.089 12.9803Z" fill="#CF6F64"/>
<path d="M104.259 7.78248C103.157 8.28664 102.768 12.6678 104.153 13.3164C105.539 13.965 106.347 6.8243 104.259 7.78248Z" fill="#263238"/>
<path d="M109.988 10.5569C109.723 12.7563 109.693 14.0506 108.514 15.1768C108.148 15.5505 107.687 15.816 107.18 15.9439C106.673 16.0718 106.141 16.0572 105.642 15.9016C105.143 15.7461 104.696 15.4556 104.352 15.0624C104.008 14.6691 103.779 14.1884 103.69 13.6732C103.334 11.6979 103.826 8.43413 106.031 7.55849C106.495 7.35411 107.004 7.27739 107.507 7.33628C108.01 7.39516 108.488 7.58751 108.892 7.89338C109.296 8.19925 109.61 8.60751 109.803 9.07584C109.995 9.54417 110.059 10.0555 109.988 10.5569Z" fill="#E58A7B"/>
<path d="M106.365 8.92061C107.998 8.5049 109.198 8.22187 108.767 9.58102C108.198 11.3971 107.514 13.1543 108.431 13.2339C108.991 13.284 111.468 12.2345 111.153 11.1701C110.878 10.2444 112.037 9.99082 112.243 9.52205C113.007 7.82385 110.822 8.04792 111.211 7.01603C111.601 5.98414 109.443 4.32132 108.263 5.14978C106.344 6.48829 103.051 6.46765 104.781 4.2653C106.023 2.69388 103.808 3.01524 103.808 3.01524C103.808 3.01524 105.147 3.80832 102.894 5.0348C100.512 6.34383 102.697 9.8611 106.365 8.92061Z" fill="#263238"/>
<path d="M110.855 12.9803C110.532 13.4469 110.048 13.7768 109.495 13.906C108.767 14.0623 108.487 13.4107 108.761 12.7562C109.006 12.1666 109.678 11.3735 110.374 11.5091C111.07 11.6447 111.229 12.4024 110.855 12.9803Z" fill="#E58A7B"/>
<path d="M100.064 38.4857C100.064 38.4857 98.071 56.3227 97.9147 63.0919C97.7555 70.1323 104.669 92.0998 104.669 92.0998L108.207 90.6257C108.207 90.6257 104.08 70.554 104.669 63.6403C105.294 56.1016 107.877 38.4975 107.877 38.4975L100.064 38.4857Z" fill="#4CAF4F"/>
<path opacity="0.2" d="M105.017 43.3828C103.428 46.679 104.498 53.1976 105.359 57.0598C105.686 54.3326 106.076 51.3726 106.444 48.6337C106.409 44.4235 106.082 41.1716 105.017 43.3828Z" fill="black"/>
<path d="M108.051 89.4583C108.069 89.4583 108.47 90.5845 108.47 90.5845L104.389 92.3004L103.746 91.1034L108.051 89.4583Z" fill="#4CAF4F"/>
<path d="M104.277 38.4857C104.277 38.4857 105.801 55.45 106.81 61.8035C107.918 68.7644 112.264 91.9465 112.264 91.9465H116.33C116.33 91.9465 113.894 69.3275 113.434 62.4344C112.933 54.9577 111.937 38.4857 111.937 38.4857H104.277Z" fill="#4CAF4F"/>
<path d="M116.391 90.8881C116.409 90.8881 116.527 92.0232 116.527 92.0232H112.058L111.739 90.7201L116.391 90.8881Z" fill="#4CAF4F"/>
<path opacity="0.2" d="M114.835 89.5438C114.826 89.5439 114.817 89.5407 114.81 89.5347C114.803 89.5287 114.798 89.5204 114.797 89.5113C114.773 89.305 112.576 68.8735 112.164 62.6822C111.716 55.966 110.813 41.0685 110.805 40.9181C110.804 40.9132 110.805 40.9083 110.806 40.9036C110.808 40.899 110.811 40.8947 110.814 40.8911C110.817 40.8875 110.821 40.8847 110.826 40.8827C110.83 40.8807 110.835 40.8797 110.84 40.8798C110.85 40.8797 110.859 40.8834 110.866 40.8899C110.873 40.8965 110.878 40.9055 110.878 40.9151C110.878 41.0655 111.789 55.9513 112.237 62.6792C112.65 68.8706 114.847 89.2873 114.867 89.5084C114.868 89.5133 114.868 89.5183 114.867 89.523C114.865 89.5278 114.863 89.5323 114.86 89.5362C114.857 89.5401 114.853 89.5433 114.849 89.5456C114.845 89.5479 114.84 89.5493 114.835 89.5497V89.5438Z" fill="black"/>
<path d="M106.615 11.1701C106.615 11.35 106.503 11.4944 106.385 11.4944C106.267 11.4944 106.182 11.35 106.193 11.1701C106.205 10.9903 106.306 10.8458 106.423 10.8458C106.541 10.8458 106.627 10.9932 106.615 11.1701Z" fill="#263238"/>
<path d="M104.593 11.1701C104.593 11.35 104.478 11.4944 104.363 11.4944C104.248 11.4944 104.159 11.35 104.168 11.1701C104.177 10.9903 104.283 10.8458 104.401 10.8458C104.519 10.8458 104.604 10.9932 104.593 11.1701Z" fill="#263238"/>
<path d="M105.229 11.2615C104.983 11.8106 104.666 12.3251 104.286 12.7916C104.581 13.0864 105.132 12.9508 105.132 12.9508L105.229 11.2615Z" fill="#DF5753"/>
<path d="M105.283 13.7027C105.276 13.7027 105.269 13.7013 105.263 13.6986C105.256 13.6959 105.251 13.6919 105.246 13.687C105.241 13.682 105.238 13.6761 105.235 13.6697C105.233 13.6633 105.232 13.6564 105.232 13.6496C105.233 13.6353 105.239 13.6218 105.25 13.6119C105.26 13.602 105.274 13.5965 105.288 13.5965C105.514 13.5981 105.737 13.5491 105.941 13.4532C106.145 13.3573 106.325 13.2169 106.468 13.0423C106.478 13.0334 106.491 13.0284 106.505 13.0284C106.518 13.0284 106.531 13.0334 106.541 13.0423C106.551 13.0522 106.556 13.0654 106.556 13.0791C106.556 13.0929 106.551 13.1061 106.541 13.116C106.389 13.3015 106.196 13.4506 105.978 13.5521C105.761 13.6536 105.523 13.7051 105.283 13.7027Z" fill="#263238"/>
<path d="M106.975 10.6276C106.961 10.6348 106.945 10.6386 106.929 10.6386C106.913 10.6386 106.898 10.6348 106.883 10.6276C106.773 10.5563 106.648 10.5119 106.517 10.4981C106.386 10.4843 106.254 10.5014 106.132 10.548C106.12 10.554 106.107 10.5575 106.093 10.5584C106.08 10.5592 106.066 10.5574 106.054 10.553C106.041 10.5486 106.03 10.5417 106.02 10.5328C106.01 10.5238 106.002 10.5129 105.996 10.5008C105.985 10.4746 105.985 10.4451 105.995 10.4187C106.006 10.3922 106.026 10.3709 106.052 10.3593C106.206 10.2963 106.373 10.2715 106.539 10.2869C106.705 10.3023 106.864 10.3575 107.004 10.4477C107.016 10.4554 107.025 10.4653 107.033 10.4767C107.04 10.4882 107.045 10.501 107.048 10.5144C107.05 10.5279 107.05 10.5417 107.047 10.555C107.044 10.5684 107.039 10.581 107.031 10.5922C107.016 10.6091 106.996 10.6214 106.975 10.6276Z" fill="#263238"/>
<path d="M103.811 10.0379C103.796 10.0341 103.781 10.0259 103.77 10.0143C103.76 10.0047 103.752 9.99325 103.747 9.9806C103.742 9.96794 103.739 9.95435 103.739 9.94062C103.739 9.92689 103.742 9.9133 103.747 9.90065C103.752 9.88799 103.76 9.87652 103.77 9.86692C103.883 9.74018 104.024 9.64124 104.181 9.57783C104.339 9.51442 104.509 9.48824 104.678 9.50133C104.692 9.50342 104.705 9.50828 104.716 9.5156C104.728 9.52291 104.738 9.53253 104.746 9.54387C104.753 9.5552 104.759 9.568 104.761 9.58148C104.764 9.59495 104.764 9.60882 104.761 9.62221C104.754 9.64951 104.738 9.67356 104.715 9.68985C104.693 9.70613 104.665 9.71353 104.637 9.71066C104.503 9.70222 104.369 9.72438 104.245 9.77546C104.12 9.82654 104.01 9.9052 103.92 10.0055C103.907 10.0204 103.89 10.0313 103.87 10.0371C103.851 10.0428 103.831 10.0431 103.811 10.0379Z" fill="#263238"/>
<path d="M114.903 22.0874L111.837 21.2708C111.837 21.2708 108.829 28.6738 107.765 29.1544C106.32 29.8148 102.662 32.1027 101.105 33.1847C101.019 33.5532 101.087 34.5291 101.282 34.7974C103.935 34.3139 109.015 32.3592 110.076 31.3656C112.497 29.0984 114.903 22.0874 114.903 22.0874Z" fill="#E58A7B"/>
<path d="M112.762 95.0806C112.613 95.0924 112.464 95.0518 112.341 94.9656C112.303 94.9313 112.274 94.8877 112.258 94.8391C112.242 94.7906 112.239 94.7386 112.249 94.6885C112.251 94.6571 112.261 94.6269 112.279 94.6009C112.297 94.575 112.321 94.5543 112.349 94.5411C112.597 94.4143 113.29 94.8536 113.37 94.9037C113.378 94.9091 113.385 94.9172 113.389 94.9268C113.393 94.9363 113.393 94.9469 113.39 94.9568C113.388 94.9671 113.383 94.9765 113.375 94.9843C113.368 94.992 113.359 94.9978 113.349 95.001C113.157 95.0482 112.96 95.0749 112.762 95.0806ZM112.467 94.6207C112.445 94.6157 112.422 94.6157 112.4 94.6207C112.388 94.6264 112.379 94.6353 112.373 94.6463C112.366 94.6573 112.363 94.6699 112.364 94.6826C112.356 94.7169 112.358 94.7527 112.368 94.7863C112.378 94.8199 112.397 94.8503 112.423 94.8742C112.538 94.9774 112.827 94.9892 113.207 94.9155C112.981 94.7663 112.726 94.6659 112.459 94.6207H112.467Z" fill="#4CAF4F"/>
<path d="M113.334 95.0009C113.327 95.0034 113.318 95.0034 113.311 95.0009C113.089 94.8771 112.674 94.3906 112.736 94.143C112.745 94.1037 112.767 94.0687 112.799 94.0436C112.83 94.0184 112.869 94.0046 112.91 94.0044C112.949 93.9991 112.989 94.0024 113.028 94.0141C113.066 94.0258 113.101 94.0456 113.131 94.0722C113.375 94.2815 113.39 94.9243 113.39 94.9567C113.392 94.9664 113.39 94.9763 113.385 94.9848C113.38 94.9933 113.373 95 113.364 95.0039C113.354 95.0059 113.344 95.0048 113.334 95.0009ZM112.939 94.1017H112.918C112.851 94.1017 112.842 94.14 112.839 94.1548C112.804 94.2992 113.066 94.6678 113.284 94.8417C113.283 94.5926 113.206 94.3499 113.063 94.1459C113.029 94.1161 112.985 94.1003 112.939 94.1017Z" fill="#4CAF4F"/>
<path d="M104.935 94.712C104.754 94.7749 104.558 94.7749 104.377 94.712C104.336 94.6898 104.302 94.6576 104.276 94.6185C104.251 94.5793 104.236 94.5344 104.233 94.4879C104.229 94.4588 104.233 94.4291 104.244 94.4018C104.255 94.3745 104.272 94.3503 104.295 94.3317C104.531 94.1194 105.495 94.3317 105.604 94.3729C105.614 94.3756 105.623 94.3817 105.63 94.3903C105.636 94.3989 105.64 94.4094 105.639 94.4201C105.64 94.4312 105.637 94.4421 105.631 94.4516C105.625 94.461 105.617 94.4685 105.607 94.4732C105.39 94.5712 105.165 94.6511 104.935 94.712ZM104.454 94.3611C104.42 94.3679 104.389 94.3831 104.363 94.4054C104.353 94.4124 104.346 94.4219 104.342 94.4329C104.338 94.4439 104.337 94.4558 104.339 94.4673C104.341 94.4982 104.351 94.5282 104.367 94.5545C104.384 94.5807 104.406 94.6024 104.433 94.6176C104.59 94.7002 104.952 94.6353 105.421 94.4378C105.105 94.3582 104.778 94.3322 104.454 94.3611Z" fill="#4CAF4F"/>
<path d="M105.598 94.4732H105.574C105.279 94.4201 104.69 94.0811 104.672 93.8275C104.672 93.7685 104.699 93.686 104.84 93.6388C104.888 93.6218 104.939 93.6146 104.989 93.6176C105.04 93.6207 105.09 93.6339 105.135 93.6565C105.453 93.8128 105.621 94.3788 105.63 94.4054C105.632 94.4143 105.632 94.4236 105.63 94.4324C105.627 94.4411 105.622 94.4491 105.616 94.4555C105.611 94.4627 105.605 94.4688 105.598 94.4732ZM104.899 93.7273H104.87C104.778 93.7597 104.778 93.798 104.778 93.8098C104.778 93.9631 105.206 94.2432 105.504 94.3376C105.435 94.1008 105.29 93.8934 105.091 93.7479C105.032 93.7178 104.963 93.7104 104.899 93.7273Z" fill="#4CAF4F"/>
<path d="M101.355 33.0107L98.2803 34.4259L97.9236 35.3104L99.0587 36.074C99.0587 36.074 101.181 35.844 101.786 34.479L101.355 33.0107Z" fill="#E58A7B"/>
<path d="M101.485 34.8475C101.416 34.2567 101.221 33.6876 100.913 33.1788L101.4 32.8132C101.766 33.3994 101.999 34.0585 102.084 34.7443L101.485 34.8475Z" fill="#263238"/>
<path d="M102.01 33.4294C102.075 33.5317 102.107 33.6515 102.101 33.7725C102.096 33.8936 102.053 34.01 101.979 34.1059C101.905 34.2019 101.803 34.2727 101.688 34.3088C101.572 34.3448 101.448 34.3444 101.333 34.3075C101.217 34.2706 101.116 34.199 101.043 34.1026C100.969 34.0061 100.928 33.8894 100.923 33.7683C100.918 33.6472 100.951 33.5277 101.017 33.4259C101.083 33.3241 101.178 33.2451 101.29 33.1995C101.416 33.1353 101.563 33.1234 101.697 33.1665C101.832 33.2095 101.944 33.304 102.01 33.4294Z" fill="#263238"/>
<path d="M96.2018 35.5698L96.6116 35.9826L99.3712 34.8033L98.2803 34.4259L96.2018 35.5698Z" fill="#E58A7B"/>
<path opacity="0.2" d="M108.051 89.4583C108.069 89.4583 108.47 90.5845 108.47 90.5845L104.389 92.3004L103.746 91.1034L108.051 89.4583Z" fill="black"/>
<path opacity="0.2" d="M116.391 90.8881C116.409 90.8881 116.527 92.0232 116.527 92.0232H112.058L111.739 90.7201L116.391 90.8881Z" fill="black"/>
<path d="M115.702 21.2384C116.512 23.8535 113.343 27.4297 113.343 27.4297L108.965 25.6431C109.484 24.1316 110.082 22.6485 110.757 21.2C112.102 18.3019 114.882 18.5997 115.702 21.2384Z" fill="#4CAF4F"/>
<path opacity="0.2" d="M115.702 21.2384C116.512 23.8535 113.343 27.4297 113.343 27.4297L108.965 25.6431C109.484 24.1316 110.082 22.6485 110.757 21.2C112.102 18.3019 114.882 18.5997 115.702 21.2384Z" fill="black"/>
<path d="M96.5846 7.05623L96.3566 12.1162L96.6599 12.1299L96.8879 7.0699L96.5846 7.05623Z" fill="#4CAF4F"/>
<path d="M95.9983 -3.60071H61.2089L57.9717 68.844H92.7612L95.9983 -3.60071Z" fill="#4CAF4F"/>
<path opacity="0.56" d="M94.9606 -2.60425H60.1711L56.934 69.8404H91.7234L94.9606 -2.60425Z" fill="#FAFAFA"/>
<path opacity="0.07" d="M93.9228 -1.6106H59.1333L55.8932 70.8341H90.6827L93.9228 -1.6106Z" fill="#4CAF4F"/>
<path d="M89.9633 29.9858H60.2684L60.0208 35.5286H89.7156L89.9633 29.9858Z" fill="white"/>
<path d="M76.5989 25.9409H60.4483L60.3392 28.4204H76.4898L76.5989 25.9409Z" fill="#4CAF4F"/>
<path d="M89.2941 44.9453H59.5992L59.3516 50.488H89.0464L89.2941 44.9453Z" fill="white"/>
<path opacity="0.47" d="M83.8486 57.9738H63.88L63.5823 64.6162H83.5509L83.8486 57.9738Z" fill="#4CAF4F"/>
<path d="M82.513 65.648H62.5445C62.5358 65.6503 62.5266 65.6503 62.5179 65.648C62.515 65.6394 62.515 65.6301 62.5179 65.6215L62.8128 58.9761C62.8127 58.9716 62.8137 58.9671 62.8155 58.963C62.8173 58.9588 62.8199 58.9551 62.8233 58.9521C62.8266 58.949 62.8305 58.9467 62.8348 58.9453C62.8391 58.9438 62.8436 58.9433 62.8481 58.9437H82.8167C82.8204 58.9419 82.8244 58.9409 82.8285 58.9409C82.8326 58.9409 82.8366 58.9419 82.8403 58.9437C82.8424 58.9473 82.8435 58.9513 82.8435 58.9555C82.8435 58.9596 82.8424 58.9637 82.8403 58.9673L82.5514 65.6274C82.5478 65.6343 82.5423 65.64 82.5354 65.6437C82.5286 65.6474 82.5208 65.6489 82.513 65.648ZM62.5798 65.5773H82.4777L82.7725 59.0026H62.8747L62.5798 65.5773Z" fill="white"/>
<path d="M73.111 40.9003H59.779L59.6699 43.3827H72.999L73.111 40.9003Z" fill="#4CAF4F"/>
<path d="M83.4682 12.0811C83.392 13.6942 82.8184 15.2442 81.8261 16.5182C81.0915 17.4806 80.1462 18.2618 79.0627 18.802C77.9792 19.3423 76.7864 19.627 75.5758 19.6345C74.5974 19.642 73.6279 19.4491 72.727 19.0677C71.826 18.6863 71.0127 18.1244 70.3371 17.4168C69.6615 16.7092 69.138 15.8707 68.7987 14.9531C68.4594 14.0354 68.3116 13.058 68.3643 12.0811C68.468 10.0539 69.3422 8.14284 70.8082 6.73881C72.2741 5.33477 74.2211 4.5438 76.2509 4.52766C77.23 4.51853 78.2005 4.71026 79.1026 5.09101C80.0046 5.47177 80.819 6.03345 81.4954 6.74135C82.1718 7.44926 82.6959 8.28835 83.0352 9.20678C83.3745 10.1252 83.5219 11.1035 83.4682 12.0811Z" fill="white"/>
<path d="M84.1788 6.10792C84.1595 6.53684 84.007 6.94909 83.7424 7.28723C83.5467 7.54283 83.2951 7.75034 83.0069 7.89392C82.7187 8.03749 82.4016 8.11335 82.0796 8.11569C81.7677 8.11758 81.46 8.04307 81.1835 7.89866C80.907 7.75424 80.6701 7.54432 80.4935 7.28723C80.2595 6.93982 80.1437 6.5263 80.1633 6.10792C80.1918 5.56969 80.4245 5.0626 80.814 4.69007C81.2035 4.31753 81.7205 4.10761 82.2595 4.10311C82.5195 4.10073 82.7772 4.15163 83.0168 4.25265C83.2564 4.35368 83.4728 4.50269 83.6526 4.69052C83.8324 4.87835 83.9719 5.101 84.0624 5.34477C84.1529 5.58854 84.1925 5.84826 84.1788 6.10792Z" fill="#4CAF4F"/>
<path d="M63.4673 32.7572C63.4532 32.9948 63.3495 33.2181 63.1771 33.3823C63.0048 33.5464 62.7766 33.6391 62.5386 33.6417C62.4237 33.643 62.3097 33.6208 62.2038 33.5764C62.0978 33.532 62.002 33.4663 61.9225 33.3834C61.8429 33.3005 61.7811 33.2021 61.7411 33.0944C61.701 32.9867 61.6835 32.8719 61.6895 32.7572C61.7023 32.5191 61.8056 32.2949 61.9782 32.1305C62.1509 31.9661 62.3798 31.8739 62.6182 31.8727C62.733 31.8718 62.8468 31.8943 62.9526 31.9389C63.0583 31.9834 63.1539 32.0491 63.2334 32.1319C63.3129 32.2147 63.3747 32.3129 63.4149 32.4204C63.4551 32.5279 63.4729 32.6425 63.4673 32.7572Z" fill="#263238"/>
<path d="M67.4415 32.7572C67.4281 32.995 67.3246 33.2188 67.1521 33.3831C66.9796 33.5474 66.751 33.6398 66.5128 33.6417C66.3982 33.6427 66.2845 33.6201 66.1789 33.5755C66.0733 33.5309 65.9779 33.4652 65.8986 33.3823C65.8194 33.2995 65.7579 33.2013 65.718 33.0938C65.6781 32.9863 65.6607 32.8717 65.6667 32.7572C65.6794 32.5197 65.7823 32.2959 65.9543 32.1316C66.1263 31.9672 66.3546 31.8746 66.5924 31.8727C66.7074 31.8714 66.8213 31.8936 66.9273 31.938C67.0333 31.9824 67.129 32.0481 67.2086 32.131C67.2882 32.2139 67.3499 32.3123 67.39 32.42C67.4301 32.5277 67.4476 32.6425 67.4415 32.7572Z" fill="#263238"/>
<path d="M71.4188 32.7572C71.4054 32.995 71.3019 33.2188 71.1294 33.3831C70.9569 33.5474 70.7283 33.6398 70.4901 33.6417C70.3753 33.6426 70.2616 33.6201 70.1558 33.5756C70.05 33.531 69.9544 33.4653 69.8749 33.3825C69.7954 33.2997 69.7337 33.2015 69.6935 33.094C69.6533 32.9865 69.6354 32.8719 69.641 32.7572C69.6545 32.5194 69.758 32.2956 69.9305 32.1313C70.103 31.9671 70.3315 31.8746 70.5697 31.8727C70.6846 31.8714 70.7986 31.8936 70.9046 31.938C71.0106 31.9824 71.1063 32.0481 71.1859 32.131C71.2655 32.2139 71.3272 32.3123 71.3673 32.42C71.4073 32.5277 71.4249 32.6425 71.4188 32.7572Z" fill="#263238"/>
<path d="M62.798 47.7167C62.7838 47.9542 62.6801 48.1776 62.5078 48.3417C62.3354 48.5059 62.1073 48.5986 61.8693 48.6011C61.7545 48.6021 61.6407 48.5796 61.5349 48.535C61.4292 48.4904 61.3336 48.4247 61.2541 48.3419C61.1746 48.2591 61.1128 48.1609 61.0726 48.0534C61.0324 47.9459 61.0146 47.8313 61.0202 47.7167C61.0337 47.4788 61.1371 47.2551 61.3096 47.0908C61.4821 46.9265 61.7107 46.834 61.9489 46.8322C62.0637 46.8312 62.1774 46.8537 62.2832 46.8983C62.389 46.9429 62.4846 47.0086 62.5641 47.0914C62.6436 47.1742 62.7053 47.2724 62.7455 47.3799C62.7858 47.4874 62.8036 47.602 62.798 47.7167Z" fill="#263238"/>
<path d="M66.7724 47.7167C66.7589 47.954 66.6558 48.1773 66.484 48.3415C66.3121 48.5057 66.0843 48.5985 65.8466 48.6011C65.7317 48.6025 65.6177 48.5803 65.5117 48.5359C65.4058 48.4914 65.31 48.4257 65.2304 48.3428C65.1509 48.2599 65.0891 48.1616 65.0491 48.0539C65.009 47.9462 64.9914 47.8314 64.9975 47.7167C65.011 47.4788 65.1145 47.2551 65.287 47.0908C65.4595 46.9265 65.688 46.834 65.9262 46.8322C66.0409 46.8312 66.1545 46.8537 66.2601 46.8983C66.3658 46.9429 66.4612 47.0087 66.5404 47.0916C66.6197 47.1744 66.6812 47.2726 66.721 47.3801C66.7609 47.4876 66.7784 47.6022 66.7724 47.7167Z" fill="#263238"/>
<path d="M70.7584 47.7167C70.7449 47.9545 70.6414 48.1783 70.4689 48.3426C70.2965 48.5068 70.0679 48.5993 69.8297 48.6012C69.715 48.6017 69.6015 48.5789 69.4959 48.5342C69.3903 48.4894 69.2949 48.4237 69.2155 48.341C69.1361 48.2583 69.0743 48.1603 69.0339 48.053C68.9936 47.9456 68.9754 47.8312 68.9806 47.7167C68.9948 47.4791 69.0985 47.2557 69.2708 47.0916C69.4432 46.9275 69.6713 46.8348 69.9093 46.8322C70.0242 46.8308 70.1382 46.8531 70.2442 46.8975C70.3501 46.9419 70.4459 47.0076 70.5255 47.0905C70.6051 47.1734 70.6668 47.2717 70.7069 47.3795C70.7469 47.4872 70.7645 47.6019 70.7584 47.7167Z" fill="#263238"/>
<path d="M74.7267 47.7167C74.7125 47.9542 74.6088 48.1776 74.4365 48.3417C74.2641 48.5059 74.036 48.5986 73.798 48.6011C73.6833 48.6017 73.5697 48.5789 73.4641 48.5341C73.3586 48.4894 73.2632 48.4237 73.1837 48.341C73.1043 48.2583 73.0426 48.1603 73.0022 48.0529C72.9618 47.9456 72.9437 47.8312 72.9489 47.7167C72.963 47.4791 73.0667 47.2557 73.2391 47.0916C73.4114 46.9274 73.6396 46.8347 73.8776 46.8322C73.9924 46.8312 74.1061 46.8537 74.2119 46.8983C74.3177 46.9429 74.4133 47.0086 74.4928 47.0914C74.5723 47.1742 74.634 47.2724 74.6742 47.3799C74.7144 47.4874 74.7323 47.602 74.7267 47.7167Z" fill="#263238"/>
<path d="M78.7187 47.7167C78.7045 47.9542 78.6008 48.1776 78.4285 48.3417C78.2561 48.5059 78.028 48.5986 77.79 48.6011C77.6751 48.6025 77.5611 48.5803 77.4551 48.5359C77.3491 48.4914 77.2534 48.4257 77.1738 48.3428C77.0942 48.2599 77.0325 48.1616 76.9924 48.0539C76.9524 47.9462 76.9348 47.8314 76.9409 47.7167C76.9543 47.4788 77.0578 47.2551 77.2303 47.0908C77.4028 46.9265 77.6314 46.834 77.8696 46.8322C77.9844 46.8312 78.0981 46.8537 78.2039 46.8983C78.3097 46.9429 78.4053 47.0086 78.4848 47.0914C78.5642 47.1742 78.626 47.2724 78.6662 47.3799C78.7064 47.4874 78.7243 47.602 78.7187 47.7167Z" fill="#263238"/>
<path d="M78.1153 11.6876C79.3493 10.4809 79.4148 8.54664 78.2616 7.36735C77.1083 6.18806 75.1731 6.21031 73.9391 7.41705C72.7051 8.6238 72.6396 10.5581 73.7928 11.7373C74.9461 12.9166 76.8813 12.8944 78.1153 11.6876Z" fill="#4CAF4F"/>
<path d="M81.8261 16.5182C81.0915 17.4805 80.1462 18.2618 79.0628 18.802C77.9793 19.3422 76.7864 19.627 75.5758 19.6345C74.4018 19.6444 73.2434 19.3654 72.2028 18.8219C71.1621 18.2784 70.2712 17.4873 69.6085 16.5182C71.0414 15.0912 73.3086 14.1595 75.8205 14.1595C78.3324 14.1595 80.52 15.0912 81.8261 16.5182Z" fill="#4CAF4F"/>
<path opacity="0.1" d="M78.1153 11.6876C79.3493 10.4809 79.4148 8.54664 78.2616 7.36735C77.1083 6.18806 75.1731 6.21031 73.9391 7.41705C72.7051 8.6238 72.6396 10.5581 73.7928 11.7373C74.9461 12.9166 76.8813 12.8944 78.1153 11.6876Z" fill="white"/>
<path opacity="0.1" d="M81.8261 16.5182C81.0915 17.4805 80.1462 18.2618 79.0628 18.802C77.9793 19.3422 76.7864 19.627 75.5758 19.6345C74.4018 19.6444 73.2434 19.3654 72.2028 18.8219C71.1621 18.2784 70.2712 17.4873 69.6085 16.5182C71.0414 15.0912 73.3086 14.1595 75.8205 14.1595C78.3324 14.1595 80.52 15.0912 81.8261 16.5182Z" fill="white"/>
<path d="M38.4483 36.8641C38.1682 37.4773 37.8734 38.1525 37.6169 38.807C37.3604 39.4615 37.098 40.1367 36.871 40.8089C36.4075 42.1336 36.0545 43.4945 35.8155 44.8775L35.7507 45.3109C35.7445 45.3852 35.7515 45.4601 35.7713 45.532C35.8409 45.7763 35.9505 46.0075 36.0956 46.216C36.4742 46.7557 36.9134 47.2503 37.4046 47.6901C37.9225 48.1718 38.4658 48.6255 39.0321 49.0493C39.5982 49.4856 40.1937 49.9101 40.7804 50.3111L40.2291 51.3459C38.8281 50.7355 37.4984 49.9733 36.2637 49.0728C35.6049 48.5924 35.0105 48.0297 34.4947 47.3982C34.189 47.0224 33.9506 46.5964 33.7901 46.1393C33.6967 45.8538 33.649 45.5553 33.6486 45.2548C33.6486 45.1841 33.6486 45.0809 33.6486 45.0308V44.8863L33.678 44.5915C33.8471 43.0554 34.17 41.5403 34.6421 40.0688C34.8721 39.3436 35.1168 38.6212 35.3969 37.9166C35.677 37.212 35.9659 36.5221 36.3226 35.8057L38.4483 36.8641Z" fill="#E58A7B"/>
<path d="M40.3647 50.1283L42.4491 49.0729L41.9095 51.3607C41.9095 51.3607 40.4796 51.7617 39.8163 51.0659L40.3647 50.1283Z" fill="#E58A7B"/>
<path d="M44.3566 49.4473L43.8023 51.3401L41.9095 51.3607L42.4491 49.0729L44.3566 49.4473Z" fill="#E58A7B"/>
<path d="M47.299 25.8258C47.4105 26.2344 47.5657 26.6298 47.7619 27.0051C47.7045 27.0701 47.6307 27.1184 47.5482 27.1449C47.4657 27.1713 47.3775 27.175 47.2931 27.1555L47.299 25.8258Z" fill="#DF5753"/>
<path d="M47.2371 25.8435C47.3592 25.8435 47.4582 25.6917 47.4582 25.5045C47.4582 25.3172 47.3592 25.1654 47.2371 25.1654C47.115 25.1654 47.016 25.3172 47.016 25.5045C47.016 25.6917 47.115 25.8435 47.2371 25.8435Z" fill="#263238"/>
<path d="M47.1722 25.1772L47.6204 25.0504C47.6204 25.0504 47.4022 25.3983 47.1722 25.1772Z" fill="#263238"/>
<path d="M41.541 27.9899C41.8093 29.3608 42.0776 31.8757 41.1165 32.7926C41.1165 32.7926 41.4938 34.1842 44.0441 34.1842C46.8479 34.1842 45.3826 32.7926 45.3826 32.7926C43.8524 32.427 43.8908 31.2919 44.1591 30.2247L41.541 27.9899Z" fill="#E58A7B"/>
<path d="M40.7951 24.8648C40.9367 27.1556 40.9484 28.1285 42.1042 29.3048C43.8466 31.0738 46.6297 30.4016 47.1752 28.1255C47.6675 26.0618 47.355 22.6654 45.1114 21.7543C44.6189 21.5515 44.0828 21.4776 43.5538 21.5397C43.0248 21.6017 42.5204 21.7978 42.0882 22.1092C41.6561 22.4206 41.3106 22.8371 41.0843 23.3192C40.858 23.8014 40.7585 24.3334 40.7951 24.8648Z" fill="#E58A7B"/>
<path d="M41.0221 22.2879C39.8723 22.7066 38.3392 22.3941 38.9406 25.9408C39.5775 29.6969 38.5986 30.9322 38.5986 30.9322C38.5986 30.9322 42.9591 31.8609 47.411 30.8762C47.411 30.8762 46.0518 28.4999 46.4322 26.7487C46.9186 24.5375 46.5354 23.7208 46.5354 23.7208C46.5354 23.7208 42.6378 21.6983 41.0221 22.2879Z" fill="#263238"/>
<path d="M45.8867 26.0587C45.8879 26.4943 46.0126 26.9206 46.2464 27.2882C46.5589 27.7658 46.9275 27.583 47.0188 27.0759C47.1014 26.6307 47.0395 25.8435 46.6415 25.5369C46.2435 25.2303 45.8926 25.531 45.8867 26.0587Z" fill="#E58A7B"/>
<path d="M40.0226 22.6742C39.6924 21.7455 41.2668 20.3156 44.5983 20.9053C47.9299 21.4949 48.0743 24.2692 48.0743 24.2692L47.4021 23.4673L47.4316 24.3105L44.0087 24.968L40.0226 22.6742Z" fill="#263238"/>
<path d="M40.3057 32.9488C40.286 32.8142 40.3197 32.6772 40.3995 32.5671C40.4794 32.4569 40.5991 32.3823 40.7332 32.3592C41.7709 32.1882 44.1295 31.8403 45.3147 32.0054C46.1992 32.1292 46.4292 32.6422 46.4675 33.0638C46.4735 33.1376 46.4636 33.2119 46.4386 33.2816C46.4135 33.3512 46.3738 33.4148 46.3221 33.4678C46.2704 33.5209 46.208 33.5623 46.139 33.5892C46.07 33.6161 45.996 33.628 45.9221 33.624L40.798 33.394C40.6772 33.3879 40.5622 33.3403 40.4725 33.2591C40.3828 33.178 40.3238 33.0684 40.3057 32.9488Z" fill="#4CAF4F"/>
<path opacity="0.6" d="M40.3057 32.9488C40.286 32.8142 40.3197 32.6772 40.3995 32.5671C40.4794 32.4569 40.5991 32.3823 40.7332 32.3592C41.7709 32.1882 44.1295 31.8403 45.3147 32.0054C46.1992 32.1292 46.4292 32.6422 46.4675 33.0638C46.4735 33.1376 46.4636 33.2119 46.4386 33.2816C46.4135 33.3512 46.3738 33.4148 46.3221 33.4678C46.2704 33.5209 46.208 33.5623 46.139 33.5892C46.07 33.6161 45.996 33.628 45.9221 33.624L40.798 33.394C40.6772 33.3879 40.5622 33.3403 40.4725 33.2591C40.3828 33.178 40.3238 33.0684 40.3057 32.9488Z" fill="black"/>
<path d="M43.2687 84.455L45.1703 85.7758L48.3515 81.4625L46.4499 80.1447L43.2687 84.455Z" fill="#E58A7B"/>
<path d="M38.8345 84.3694L40.8422 85.5134L43.6578 80.9524L41.6501 79.8085L38.8345 84.3694Z" fill="#E58A7B"/>
<path d="M48.3486 81.4625L46.7094 83.6855L44.8077 82.3676L46.447 80.1447L48.3486 81.4625Z" fill="#CF6F64"/>
<path d="M41.6472 79.8085L43.6579 80.9553L42.2074 83.3051L40.1967 82.1582L41.6472 79.8085Z" fill="#CF6F64"/>
<path d="M44.8725 47.3481C44.8725 47.3481 52.2962 56.703 50.9017 65.6509C49.7784 72.8771 43.2627 82.6624 43.2627 82.6624L40.1995 81.1411C42.3587 76.8146 44.2012 72.3372 45.7128 67.7442C46.1789 66.3182 46.3149 64.805 46.1106 63.3188C45.9063 61.8325 45.367 60.4121 44.5334 59.1648C40.7715 53.6722 34.7452 56.9418 38.7991 47.3481H44.8725Z" fill="#4CAF4F"/>
<path opacity="0.6" d="M44.8725 47.3481C44.8725 47.3481 52.2962 56.703 50.9017 65.6509C49.7784 72.8771 43.2627 82.6624 43.2627 82.6624L40.1995 81.1411C42.3587 76.8146 44.2012 72.3372 45.7128 67.7442C46.1789 66.3182 46.3149 64.805 46.1106 63.3188C45.9063 61.8325 45.367 60.4121 44.5334 59.1648C40.7715 53.6722 34.7452 56.9418 38.7991 47.3481H44.8725Z" fill="black"/>
<path opacity="0.4" d="M48.5136 53.3567L47.4346 52.2836C47.4346 52.3691 49.5249 65.2736 50.1116 68.9C50.4578 67.8406 50.7229 66.7565 50.9047 65.6569C51.5946 61.2669 50.1529 56.7826 48.5136 53.3567Z" fill="black"/>
<path d="M48.1864 47.3481C48.1864 47.3481 57.1255 59.1058 57.3791 66.1551C57.5884 72.0516 47.6498 83.4761 47.6498 83.4761L44.7605 81.6069C44.7605 81.6069 50.5774 73.4933 52.0427 66.8656C51.4767 60.2969 39.5067 47.3481 39.5067 47.3481H48.1864Z" fill="#4CAF4F"/>
<path opacity="0.6" d="M48.1864 47.3481C48.1864 47.3481 57.1255 59.1058 57.3791 66.1551C57.5884 72.0516 47.6498 83.4761 47.6498 83.4761L44.7605 81.6069C44.7605 81.6069 50.5774 73.4933 52.0427 66.8656C51.4767 60.2969 39.5067 47.3481 39.5067 47.3481H48.1864Z" fill="black"/>
<path d="M37.1275 33.3174C36.1723 33.5444 35.2554 37.0175 35.2554 37.0175L38.9908 39.5117C38.9908 39.5117 40.235 36.7639 39.7986 35.561C39.3476 34.308 38.3275 33.0314 37.1275 33.3174Z" fill="#4CAF4F"/>
<path opacity="0.2" d="M37.8587 35.5552L37.5992 38.583L38.9879 39.5147C39.3713 38.6515 39.6552 37.7474 39.834 36.82L37.8587 35.5552Z" fill="black"/>
<path d="M49.292 33.3852C49.292 33.3852 50.3946 33.7714 48.1864 47.3452H38.7932C38.9524 43.5124 38.9554 41.1538 37.1274 33.3174C38.4427 33.0463 39.7758 32.8709 41.1164 32.7926C42.5367 32.6907 43.9623 32.6907 45.3826 32.7926C47.2164 32.9606 49.292 33.3852 49.292 33.3852Z" fill="#4CAF4F"/>
<path d="M50.2472 35.5551C50.4595 36.1447 50.6836 36.7786 50.9194 37.3889C51.1553 37.9992 51.3794 38.6272 51.6182 39.2463L52.3405 41.0978L52.5233 41.5607L52.6176 41.7906L52.6619 41.9056C52.6619 41.9263 52.6619 41.9263 52.6619 41.9233C52.608 41.8474 52.5374 41.7848 52.4555 41.7405C52.3388 41.6719 52.2074 41.6324 52.0722 41.6255C51.9599 41.622 51.8482 41.6432 51.7449 41.6875C51.6093 41.7494 51.6093 41.7759 51.6123 41.773C51.6368 41.7533 51.6586 41.7305 51.6771 41.7051C51.8403 41.4909 51.9816 41.2607 52.0987 41.0182C52.2373 40.747 52.37 40.458 52.5027 40.1662C52.7621 39.5765 53.0009 38.9662 53.2397 38.35C53.4785 37.7338 53.7055 37.1118 53.9267 36.4838L54.5989 34.6028L55.7339 34.8976C55.5099 36.242 55.2209 37.551 54.8731 38.8837C54.705 39.547 54.5075 40.2045 54.2834 40.8678C54.1714 41.201 54.0475 41.5312 53.906 41.8702C53.7585 42.2382 53.5769 42.5916 53.3635 42.9257C53.2851 43.0382 53.1984 43.1446 53.1041 43.2441C52.9535 43.4067 52.7708 43.5363 52.5675 43.6245C52.3871 43.7019 52.1917 43.7382 51.9956 43.7306C51.7758 43.7224 51.5617 43.6585 51.3735 43.5449C51.1514 43.4062 50.967 43.2148 50.8369 42.9876C50.7927 42.911 50.7543 42.8343 50.7278 42.7783L50.6718 42.6663L50.5597 42.4363L50.3357 41.9793C50.0409 41.3661 49.746 40.747 49.4895 40.1249C49.233 39.5028 48.9618 38.8719 48.7082 38.238C48.4547 37.6041 48.2277 36.9702 48.0125 36.2862L50.2472 35.5551Z" fill="#E58A7B"/>
<path d="M49.292 33.3852C50.4212 33.6535 51.6919 36.9909 51.6919 36.9909L48.3338 39.8478C48.3338 39.8478 46.161 36.2096 46.6003 35.0097C47.0572 33.7596 47.8179 33.0344 49.292 33.3852Z" fill="#4CAF4F"/>
<path d="M55.1325 33.5473L56.3118 32.5626L57.1314 33.8392L56.527 34.9035C56.527 34.9035 55.5659 35.788 54.7168 35.3369C54.582 35.034 54.5497 34.6954 54.6247 34.3725C54.6998 34.0495 54.878 33.7598 55.1325 33.5473Z" fill="#E58A7B"/>
<path d="M58.4405 32.5656L58.352 32.8869L56.4858 33.1994L56.303 32.5626L58.4405 32.5656Z" fill="#E58A7B"/>
<path d="M47.8797 83.6265L44.5128 81.4507L45.1172 80.4011L48.8998 82.7273L47.8797 83.6265Z" fill="#4CAF4F"/>
<path d="M42.1601 85.3601C41.8647 85.324 41.5809 85.2234 41.3287 85.0653C41.3183 85.0617 41.3093 85.0549 41.3029 85.0459C41.2965 85.0369 41.2931 85.0262 41.2931 85.0152C41.2931 85.0042 41.2965 84.9934 41.3029 84.9844C41.3093 84.9754 41.3183 84.9687 41.3287 84.965C41.4201 84.9356 42.2132 84.6909 42.4432 84.8795C42.469 84.901 42.4887 84.929 42.5001 84.9606C42.5115 84.9923 42.5142 85.0264 42.508 85.0594C42.5039 85.1125 42.4863 85.1636 42.4569 85.208C42.4275 85.2524 42.3873 85.2885 42.34 85.3129C42.2848 85.3431 42.223 85.3593 42.1601 85.3601ZM41.4968 85.0358C41.8653 85.2245 42.1601 85.2923 42.3016 85.2215C42.3325 85.2045 42.3584 85.1798 42.377 85.1499C42.3955 85.1199 42.4062 85.0857 42.4078 85.0506C42.4078 85.0034 42.4078 84.9827 42.3812 84.9709C42.2574 84.8707 41.8152 84.9474 41.4909 85.0358H41.4968Z" fill="#263238"/>
<path d="M41.3494 85.0858C41.3338 85.0856 41.319 85.0793 41.3081 85.0682C41.3037 85.06 41.3014 85.0509 41.3014 85.0416C41.3014 85.0324 41.3037 85.0232 41.3081 85.0151C41.3081 84.9886 41.4997 84.3488 41.8004 84.2043C41.8388 84.1868 41.8806 84.1777 41.9228 84.1777C41.965 84.1777 42.0067 84.1868 42.0451 84.2043C42.0865 84.2174 42.1224 84.2439 42.147 84.2797C42.1715 84.3155 42.1834 84.3585 42.1808 84.4019C42.1601 84.6672 41.6206 85.0328 41.3729 85.0947L41.3494 85.0858ZM41.9213 84.281C41.8926 84.2819 41.8645 84.2889 41.8388 84.3016C41.656 84.3901 41.5056 84.735 41.4319 84.9443C41.6914 84.8352 42.0481 84.5463 42.0599 84.3842C42.0599 84.3576 42.0599 84.3252 41.9921 84.2957C41.97 84.2839 41.9461 84.2759 41.9213 84.2721V84.281Z" fill="#263238"/>
<path d="M46.3673 86.6338C46.0341 86.6338 45.5713 86.2063 45.3177 85.9439C45.3112 85.9349 45.3077 85.924 45.3077 85.9129C45.3077 85.9018 45.3112 85.891 45.3177 85.882C45.3235 85.8725 45.3318 85.8647 45.3417 85.8595C45.3515 85.8543 45.3626 85.8519 45.3737 85.8525C45.4916 85.8525 46.5147 86.0058 46.6592 86.2947C46.6745 86.3206 46.6825 86.3502 46.6825 86.3802C46.6825 86.4103 46.6745 86.4398 46.6592 86.4657C46.6375 86.5107 46.6048 86.5495 46.564 86.5784C46.5233 86.6072 46.4759 86.6253 46.4262 86.6308L46.3673 86.6338ZM45.5123 85.9852C45.8838 86.3449 46.211 86.5453 46.3968 86.5218C46.4293 86.5175 46.4603 86.5053 46.487 86.4863C46.5137 86.4673 46.5354 86.442 46.5501 86.4127C46.5567 86.4026 46.5602 86.3908 46.5602 86.3788C46.5602 86.3667 46.5567 86.3549 46.5501 86.3449C46.4734 86.1856 45.928 86.05 45.5123 85.9852Z" fill="#263238"/>
<path d="M45.5448 85.9703C45.4786 85.9722 45.4125 85.9673 45.3473 85.9556C45.3382 85.9542 45.3296 85.9505 45.3224 85.9448C45.3151 85.9392 45.3095 85.9317 45.306 85.9232C45.3016 85.9145 45.2993 85.9049 45.2993 85.8952C45.2993 85.8854 45.3016 85.8758 45.306 85.8671C45.3237 85.8465 45.7217 85.3659 46.0991 85.3335C46.2059 85.3252 46.3118 85.3591 46.3939 85.4279C46.5089 85.5281 46.503 85.6165 46.4735 85.6726C46.3998 85.873 45.8898 85.9703 45.5448 85.9703ZM45.4682 85.8613C45.7984 85.8789 46.3261 85.7698 46.3939 85.6254C46.3939 85.6254 46.4175 85.5782 46.3409 85.5134C46.3104 85.4868 46.2747 85.4669 46.2362 85.4547C46.1976 85.4425 46.157 85.4384 46.1168 85.4426C45.8626 85.5135 45.6362 85.6607 45.4682 85.8642V85.8613Z" fill="#263238"/>
<path d="M41.429 84.7674L38.9289 84.0599C38.8858 84.0468 38.8394 84.0501 38.7986 84.0692C38.7578 84.0882 38.7254 84.1216 38.7077 84.163L37.8645 86.0588C37.8447 86.1073 37.8354 86.1595 37.8373 86.2119C37.8391 86.2643 37.852 86.3158 37.8751 86.3628C37.8982 86.4099 37.931 86.4515 37.9714 86.485C38.0117 86.5185 38.0587 86.543 38.1092 86.557C38.9937 86.787 39.4183 86.8519 40.518 87.1673C41.1961 87.356 42.1631 87.7069 43.0977 87.9722C44.0323 88.2375 44.3448 87.3265 43.9822 87.1319C42.3429 86.2652 42.2132 85.6578 41.7651 85.0092C41.6848 84.8917 41.5659 84.8062 41.429 84.7674Z" fill="#4CAF4F"/>
<path d="M45.3855 85.5989L43.251 84.1248C43.2148 84.0984 43.1702 84.0862 43.1256 84.0906C43.081 84.0949 43.0396 84.1155 43.0092 84.1483L41.594 85.6697C41.5595 85.709 41.5338 85.7552 41.5186 85.8052C41.5033 85.8552 41.4989 85.9079 41.5056 85.9598C41.5123 86.0117 41.5299 86.0615 41.5574 86.1061C41.5848 86.1506 41.6215 86.1887 41.6648 86.218C42.4166 86.7222 42.8058 86.9256 43.7463 87.5772C44.3359 87.9781 45.4769 88.8685 46.2729 89.4228C47.0689 89.9771 47.6615 89.2164 47.3785 88.9157C46.1108 87.5624 45.8336 86.7133 45.6243 85.9438C45.588 85.8042 45.5034 85.682 45.3855 85.5989Z" fill="#4CAF4F"/>
<path d="M43.655 82.857L39.8075 80.9436L40.2055 79.8999L44.3154 81.9165L43.655 82.857Z" fill="#4CAF4F"/>
<path d="M38.6518 46.7939L38.3275 47.643C38.295 47.7079 38.3717 47.7757 38.4808 47.7757H48.2336C48.3191 47.7757 48.3899 47.7344 48.3958 47.6813L48.4783 46.8381C48.4783 46.7821 48.4105 46.732 48.3191 46.732H38.8051C38.7764 46.7293 38.7476 46.7335 38.7209 46.7443C38.6942 46.7551 38.6705 46.7721 38.6518 46.7939Z" fill="#4CAF4F"/>
<path opacity="0.4" d="M38.6518 46.7939L38.3275 47.643C38.295 47.7079 38.3717 47.7757 38.4808 47.7757H48.2336C48.3191 47.7757 48.3899 47.7344 48.3958 47.6813L48.4783 46.8381C48.4783 46.7821 48.4105 46.732 48.3191 46.732H38.8051C38.7764 46.7293 38.7476 46.7335 38.7209 46.7443C38.6942 46.7551 38.6705 46.7721 38.6518 46.7939Z" fill="white"/>
<path d="M40.1877 47.8582H39.9312C39.8811 47.8582 39.8428 47.8317 39.8457 47.7992L39.9666 46.7054C39.9666 46.6759 40.0138 46.6494 40.0639 46.6494H40.3204C40.3705 46.6494 40.4089 46.6759 40.4059 46.7054L40.285 47.7992C40.2821 47.8317 40.2379 47.8582 40.1877 47.8582Z" fill="#4CAF4F"/>
<path d="M46.2022 47.8582H45.9487C45.8986 47.8582 45.8602 47.8317 45.8632 47.7992L45.9811 46.7054C45.9811 46.6759 46.0312 46.6494 46.0814 46.6494H46.3349C46.385 46.6494 46.4263 46.6759 46.4204 46.7054L46.3025 47.7992C46.2877 47.8317 46.2553 47.8582 46.2022 47.8582Z" fill="#4CAF4F"/>
<g style="mix-blend-mode:multiply">
<path d="M39.9637 97.787C44.3259 97.787 47.8621 97.5309 47.8621 97.215C47.8621 96.8991 44.3259 96.6431 39.9637 96.6431C35.6015 96.6431 32.0653 96.8991 32.0653 97.215C32.0653 97.5309 35.6015 97.787 39.9637 97.787Z" fill="#F5F5F5"/>
</g>
<path d="M44.7753 96.4072C43.3778 96.0004 41.827 95.4785 40.8895 94.9331C40.8629 94.9154 40.8335 94.9066 40.8069 94.8918V88.5648H43.6343C43.8489 88.5521 44.0506 88.4579 44.1981 88.3015C44.3455 88.145 44.4277 87.9381 44.4277 87.7231C44.4277 87.5081 44.3455 87.3012 44.1981 87.1448C44.0506 86.9883 43.8489 86.8941 43.6343 86.8814H40.8217V58.0415H39.1235V86.8814H36.3138C36.1991 86.8746 36.0841 86.8913 35.9761 86.9306C35.8681 86.9698 35.7692 87.0307 35.6856 87.1095C35.602 87.1884 35.5353 87.2834 35.4898 87.389C35.4442 87.4945 35.4207 87.6082 35.4207 87.7231C35.4207 87.8381 35.4442 87.9518 35.4898 88.0573C35.5353 88.1628 35.602 88.2579 35.6856 88.3367C35.7692 88.4156 35.8681 88.4765 35.9761 88.5157C36.0841 88.5549 36.1991 88.5716 36.3138 88.5648H39.1235V94.883C39.0969 94.883 39.0704 94.9066 39.0439 94.9242C38.0916 95.4785 36.5526 96.0004 35.1551 96.3984C35.0607 96.4269 34.9797 96.4883 34.9266 96.5715C34.8736 96.6546 34.852 96.754 34.8659 96.8516C34.8798 96.9493 34.9282 97.0387 35.0024 97.1037C35.0765 97.1688 35.1715 97.2051 35.2701 97.2062H44.6603C44.7545 97.1998 44.8437 97.1612 44.913 97.097C44.9822 97.0327 45.0273 96.9467 45.0408 96.8532C45.0542 96.7597 45.0352 96.6644 44.9869 96.5833C44.9386 96.5021 44.8639 96.44 44.7753 96.4072Z" fill="#E0E0E0"/>
<path d="M45.2086 55.105H34.7246C33.8811 55.105 33.1974 55.7887 33.1974 56.6322V59.7485C33.1974 60.5919 33.8811 61.2757 34.7246 61.2757H45.2086C46.0521 61.2757 46.7358 60.5919 46.7358 59.7485V56.6322C46.7358 55.7887 46.0521 55.105 45.2086 55.105Z" fill="#4CAF4F"/>
<path d="M34.6273 61.2787V61.8153C34.6273 62.2575 35.1079 62.6172 35.6975 62.6172H44.2475C44.8371 62.6172 45.3177 62.2575 45.3177 61.8153V61.2787H34.6273Z" fill="#4CAF4F"/>
<path opacity="0.3" d="M34.6273 61.2787V61.8153C34.6273 62.2575 35.1079 62.6172 35.6975 62.6172H44.2475C44.8371 62.6172 45.3177 62.2575 45.3177 61.8153V61.2787H34.6273Z" fill="white"/>
</svg>
